HIERARCHY
ROOT joint_Root
{
	OFFSET 0.0 0.0 0.0
	CHANNELS 6 Xposition Yposition Zposition Zrotation Xrotation Yrotation 
	JOINT Hips
	{
		OFFSET -0.726466 93.3139 -2.00062
		CHANNELS 6 Xposition Yposition Zposition Zrotation Xrotation Yrotation 
		JOINT Spine
		{
			OFFSET 15.7357 0.0 0.0
			CHANNELS 6 Xposition Yposition Zposition Zrotation Xrotation Yrotation 
			JOINT Chest
			{
				OFFSET 8.98455 -0.406207 0.0
				CHANNELS 6 Xposition Yposition Zposition Zrotation Xrotation Yrotation 
				JOINT Neck
				{
					OFFSET 16.3773 0.0 0.0
					CHANNELS 6 Xposition Yposition Zposition Zrotation Xrotation Yrotation 
					JOINT Head
					{
						OFFSET 6.45672 0.0 0.0
						CHANNELS 6 Xposition Yposition Zposition Zrotation Xrotation Yrotation 
						End Site
						{
							OFFSET 0.0 0.0 0.0
						}
					}
				}
				JOINT Shoulder_L
				{
					OFFSET 12.9942 -0.242716 4.98039
					CHANNELS 6 Xposition Yposition Zposition Zrotation Xrotation Yrotation 
					JOINT UpperArm_L
					{
						OFFSET 5.34809 0.0 0.0
						CHANNELS 6 Xposition Yposition Zposition Zrotation Xrotation Yrotation 
						JOINT LowerArm_L
						{
							OFFSET 24.3286 1.87007e-05 0.0
							CHANNELS 6 Xposition Yposition Zposition Zrotation Xrotation Yrotation 
							JOINT Hand_L
							{
								OFFSET 22.2916 0.0 0.0
								CHANNELS 6 Xposition Yposition Zposition Zrotation Xrotation Yrotation 
								End Site
								{
									OFFSET 0.0 0.0 0.0
								}
							}
						}
					}
				}
				JOINT Shoulder_R
				{
					OFFSET 12.9945 -0.242716 -4.98039
					CHANNELS 6 Xposition Yposition Zposition Zrotation Xrotation Yrotation 
					JOINT UpperArm_R
					{
						OFFSET -5.34813 0.0 0.0
						CHANNELS 6 Xposition Yposition Zposition Zrotation Xrotation Yrotation 
						JOINT LowerArm_R
						{
							OFFSET -24.3289 0.000322201 0.0
							CHANNELS 6 Xposition Yposition Zposition Zrotation Xrotation Yrotation 
							JOINT Hand_R
							{
								OFFSET -22.2915 -0.000108084 0.0
								CHANNELS 6 Xposition Yposition Zposition Zrotation Xrotation Yrotation 
								End Site
								{
									OFFSET 0.0 0.0 0.0
								}
							}
						}
					}
				}
			}
		}
		JOINT UpperLeg_L
		{
			OFFSET -2.19248 -6.46944 0.0
			CHANNELS 6 Xposition Yposition Zposition Zrotation Xrotation Yrotation 
			JOINT LowerLeg_L
			{
				OFFSET 39.0811 0.0 -1.23785e-05
				CHANNELS 6 Xposition Yposition Zposition Zrotation Xrotation Yrotation 
				JOINT Foot_L
				{
					OFFSET 40.9854 0.0 -1.26872e-05
					CHANNELS 6 Xposition Yposition Zposition Zrotation Xrotation Yrotation 
					JOINT Toes_L
					{
						OFFSET 11.7543 0.0 0.0
						CHANNELS 6 Xposition Yposition Zposition Zrotation Xrotation Yrotation 
						End Site
						{
							OFFSET 0.0 0.0 0.0
						}
					}
				}
			}
		}
		JOINT UpperLeg_R
		{
			OFFSET -2.19251 6.46944 0.0
			CHANNELS 6 Xposition Yposition Zposition Zrotation Xrotation Yrotation 
			JOINT LowerLeg_R
			{
				OFFSET -39.0811 -0.00228153 -0.0401928
				CHANNELS 6 Xposition Yposition Zposition Zrotation Xrotation Yrotation 
				JOINT Foot_R
				{
					OFFSET -40.9854 0.0 0.0
					CHANNELS 6 Xposition Yposition Zposition Zrotation Xrotation Yrotation 
					JOINT Toes_R
					{
						OFFSET -11.7543 0.0 0.0
						CHANNELS 6 Xposition Yposition Zposition Zrotation Xrotation Yrotation 
						End Site
						{
							OFFSET 0.0 0.0 0.0
						}
					}
				}
			}
		}
	}
}
MOTION
Frames:	6
Frame Time:	0.0333333
0.000000 0.000000 0.000000 0.000000 0.000000 -0.000000 -1.014700 92.225300 -1.078410 88.449900 -1.564160 5.502100 15.735700 0.000005 -0.000001 79.900900 85.422500 -78.158500 8.984550 -0.406207 -0.000000 1.276020 -1.703240 3.501090 16.377300 -0.000001 -0.000001 6.384460 -1.698340 -1.199370 6.456720 -0.000001 -0.000000 4.790850 -0.704157 6.315920 12.994200 -0.242716 4.980390 -87.096800 -8.069960 -70.137400 5.348090 -0.000007 -0.000001 -81.783400 -30.161700 -94.017600 24.328600 0.000019 0.000005 4.754520 0.410988 -85.071000 22.291600 -0.000001 0.000005 20.810900 5.604890 -11.639200 12.994500 -0.242716 -4.980390 87.753200 6.943600 -72.019900 -5.348130 -0.000001 -0.000004 -64.558200 36.136200 -14.601800 -24.328900 0.000322 -0.000009 2.229240 8.127470 -15.401600 -22.291500 -0.000108 -0.000004 10.250700 5.404290 -3.077470 -2.192480 -6.469440 -0.000000 -175.535000 -6.603900 -1.433530 39.081100 -0.000007 -0.000012 -0.114061 0.266778 23.149300 40.985400 -0.000006 -0.000013 -0.518557 3.011200 -66.345400 11.754300 -0.000000 0.000003 -0.000051 -0.000578 -16.600000 -2.192510 6.469440 -0.000001 179.272000 12.286900 -179.909000 -39.081100 -0.002282 -0.040193 -0.043998 0.123652 20.940300 -40.985400 0.000008 0.000006 3.351860 7.238620 -66.007200 -11.754300 -0.000006 -0.000006 -0.007769 -0.086138 -20.080500
0.000000 0.000000 0.000000 0.000000 0.000000 -0.000000 -1.028700 92.217700 -1.076560 88.488200 -1.593780 5.557880 15.735700 0.000005 -0.000001 80.052900 85.400600 -78.341800 8.984550 -0.406207 -0.000000 1.322650 -1.684430 3.438890 16.377300 -0.000001 -0.000001 6.414240 -1.712160 -1.255070 6.456720 -0.000001 -0.000000 4.847470 -0.744616 6.418220 12.994200 -0.242716 4.980390 -87.103100 -8.048290 -70.128300 5.348090 -0.000007 -0.000001 -81.735200 -30.131800 -94.051400 24.328600 0.000019 0.000005 4.839600 0.413960 -85.122800 22.291600 -0.000001 0.000005 20.874100 5.603600 -11.560000 12.994500 -0.242716 -4.980390 87.748300 6.976130 -72.061200 -5.348130 -0.000001 -0.000004 -64.538000 36.377800 -14.770700 -24.328900 0.000322 -0.000009 2.227670 7.907540 -15.795600 -22.291500 -0.000108 -0.000004 10.178900 5.405750 -3.125340 -2.192480 -6.469440 -0.000000 -175.550000 -6.597630 -1.368990 39.081100 -0.000007 -0.000012 -0.116200 0.271686 23.156400 40.985400 -0.000006 -0.000013 -0.539143 2.992680 -66.358800 11.754300 -0.000000 0.000003 -0.000035 -0.000419 -16.593900 -2.192510 6.469440 -0.000001 179.214000 12.293500 -179.893000 -39.081100 -0.002282 -0.040193 -0.046979 0.130871 21.023700 -40.985400 0.000008 0.000006 3.335670 7.281570 -66.047300 -11.754300 -0.000006 -0.000006 -0.007981 -0.087881 -20.151700
0.000000 0.000000 0.000000 0.000000 0.000000 -0.000000 -1.060650 92.221800 -1.088240 88.490000 -1.573210 5.557700 15.735700 0.000005 -0.000001 79.980300 85.387700 -78.286400 8.984550 -0.406207 -0.000000 1.345850 -1.699040 3.404910 16.377300 -0.000001 -0.000001 6.400760 -1.730800 -1.239670 6.456720 -0.000001 -0.000000 4.861540 -0.783358 6.405610 12.994200 -0.242716 4.980390 -87.098800 -8.046450 -70.097100 5.348090 -0.000007 -0.000001 -81.726600 -30.131700 -94.078000 24.328600 0.000019 0.000005 4.896200 0.415587 -85.160300 22.291600 -0.000001 0.000005 20.866800 5.603680 -11.564400 12.994500 -0.242716 -4.980390 87.744000 6.994040 -72.072200 -5.348130 -0.000001 -0.000004 -64.588900 36.613700 -14.904800 -24.328900 0.000322 -0.000009 2.207000 7.679610 -16.094400 -22.291500 -0.000108 -0.000004 10.095900 5.409720 -3.255850 -2.192480 -6.469440 -0.000000 -175.537000 -6.609090 -1.371310 39.081100 -0.000007 -0.000012 -0.115237 0.269743 23.132700 40.985400 -0.000006 -0.000013 -0.554405 2.997210 -66.331300 11.754300 -0.000000 0.000003 -0.000039 -0.000453 -16.595200 -2.192510 6.469440 -0.000001 179.247000 12.325000 -179.896000 -39.081100 -0.002282 -0.040193 -0.045532 0.127131 21.020100 -40.985400 0.000008 0.000006 3.453120 7.243210 -66.058900 -11.754300 -0.000006 -0.000006 -0.007762 -0.086080 -20.078100
0.000000 0.000000 0.000000 0.000000 0.000000 -0.000000 -1.083650 92.217100 -1.112240 88.470900 -1.578080 5.551100 15.735700 0.000005 -0.000001 80.052400 85.374900 -78.370200 8.984550 -0.406207 -0.000000 1.372820 -1.690980 3.381930 16.377300 -0.000001 -0.000001 6.396890 -1.739350 -1.274010 6.456720 -0.000001 -0.000000 4.796120 -0.783340 6.444670 12.994200 -0.242716 4.980390 -87.094800 -8.047210 -70.073500 5.348090 -0.000007 -0.000001 -81.728800 -30.177800 -94.095500 24.328600 0.000019 0.000005 4.937690 0.417821 -85.175300 22.291600 -0.000001 0.000005 20.768600 5.603750 -11.569200 12.994500 -0.242716 -4.980390 87.739800 7.011530 -72.082500 -5.348130 -0.000001 -0.000004 -64.637600 36.933400 -14.978800 -24.328900 0.000322 -0.000009 2.172120 7.439860 -16.333800 -22.291500 -0.000108 -0.000004 10.077600 5.410610 -3.284700 -2.192480 -6.469440 -0.000000 -175.502000 -6.606350 -1.430450 39.081100 -0.000007 -0.000012 -0.117358 0.273899 23.193900 40.985400 -0.000006 -0.000013 -0.577909 2.970720 -66.336800 11.754300 -0.000000 0.000003 -0.000038 -0.000446 -16.594900 -2.192510 6.469440 -0.000001 179.284000 12.304500 -179.937000 -39.081100 -0.002282 -0.040193 -0.045943 0.127977 21.053300 -40.985400 0.000008 0.000006 3.461320 7.252750 -66.060900 -11.754300 -0.000006 -0.000006 -0.008016 -0.088162 -20.163100
0.000000 0.000000 0.000000 0.000000 0.000000 -0.000000 -1.102820 92.226100 -1.138330 88.501800 -1.582930 5.528190 15.735700 0.000005 -0.000001 80.138400 85.354900 -78.480200 8.984550 -0.406207 -0.000000 1.413970 -1.682190 3.334520 16.377300 -0.000001 -0.000001 6.364760 -1.743360 -1.281020 6.456720 -0.000001 -0.000000 4.741710 -0.824070 6.404070 12.994200 -0.242716 4.980390 -87.104400 -8.002050 -70.031400 5.348090 -0.000007 -0.000001 -81.748600 -30.254900 -94.093000 24.328600 0.000019 0.000005 4.806220 0.406894 -85.172400 22.291600 -0.000001 0.000005 20.564400 5.604890 -11.638900 12.994500 -0.242716 -4.980390 87.736200 7.023840 -72.085300 -5.348130 -0.000001 -0.000004 -64.796000 37.070600 -14.980400 -24.328900 0.000322 -0.000009 2.180690 7.413020 -16.450700 -22.291500 -0.000108 -0.000004 10.086400 5.410470 -3.280710 -2.192480 -6.469440 -0.000000 -175.529000 -6.521320 -1.428770 39.081100 -0.000007 -0.000012 -0.115635 0.270963 23.110700 40.985400 -0.000006 -0.000013 -0.605675 2.942490 -66.280500 11.754300 -0.000000 0.000003 -0.000049 -0.000560 -16.599300 -2.192510 6.469440 -0.000001 179.283000 12.315700 -179.965000 -39.081100 -0.002282 -0.040193 -0.045391 0.126793 21.015500 -40.985400 0.000008 0.000006 3.409940 7.245500 -66.012700 -11.754300 -0.000006 -0.000006 -0.007555 -0.084364 -20.008000
0.000000 0.000000 0.000000 0.000000 0.000000 -0.000000 -1.126210 92.227100 -1.169950 88.497500 -1.601480 5.510700 15.735700 0.000005 -0.000001 80.422100 85.330300 -78.777100 8.984550 -0.406207 -0.000000 1.469510 -1.643510 3.308250 16.377300 -0.000001 -0.000001 6.368940 -1.736350 -1.303460 6.456720 -0.000001 -0.000000 4.650820 -0.861467 6.411170 12.994200 -0.242716 4.980390 -87.115100 -7.959900 -70.003500 5.348090 -0.000007 -0.000001 -81.691300 -30.378000 -93.945300 24.328600 0.000019 0.000005 4.843600 0.406217 -85.217600 22.291600 -0.000001 0.000005 20.418400 5.603560 -11.557000 12.994500 -0.242716 -4.980390 87.721700 7.070030 -72.087400 -5.348130 -0.000001 -0.000004 -64.899700 37.226600 -14.922400 -24.328900 0.000322 -0.000009 2.179230 7.380040 -16.509300 -22.291500 -0.000108 -0.000004 10.099700 5.409850 -3.260370 -2.192480 -6.469440 -0.000000 -175.498000 -6.620060 -1.475770 39.081100 -0.000007 -0.000012 -0.118130 0.276634 23.123800 40.985400 -0.000006 -0.000013 -0.611734 2.988140 -66.257600 11.754300 -0.000000 0.000003 -0.000038 -0.000441 -16.594700 -2.192510 6.469440 -0.000001 179.307000 12.264000 179.991000 -39.081100 -0.002282 -0.040193 -0.045623 0.127361 21.020900 -40.985400 0.000008 0.000006 3.403640 7.245720 -65.992800 -11.754300 -0.000006 -0.000006 -0.007804 -0.086429 -20.092300
